<?xml version="1.0" encoding="UTF-8" standalone="no"?>
<svg
   xmlns:dc="http://purl.org/dc/elements/1.1/"
   xmlns:cc="http://creativecommons.org/ns#"
   xmlns:rdf="http://www.w3.org/1999/02/22-rdf-syntax-ns#"
   xmlns:svg="http://www.w3.org/2000/svg"
   xmlns="http://www.w3.org/2000/svg"
   xmlns:sodipodi="http://sodipodi.sourceforge.net/DTD/sodipodi-0.dtd"
   xmlns:inkscape="http://www.inkscape.org/namespaces/inkscape"
   width="576px"
   height="432px"
   viewBox="0 0 576 432"
   id="svg2"
   version="1.1"
   inkscape:version="0.48.4 r9939"
   sodipodi:docname="ricker.svg">
  <metadata
     id="metadata126">
    <rdf:RDF>
      <cc:Work
         rdf:about="">
        <dc:format>image/svg+xml</dc:format>
        <dc:type
           rdf:resource="http://purl.org/dc/dcmitype/StillImage" />
      </cc:Work>
    </rdf:RDF>
  </metadata>
  <sodipodi:namedview
     pagecolor="#ffffff"
     bordercolor="#666666"
     borderopacity="1"
     objecttolerance="10"
     gridtolerance="10"
     guidetolerance="10"
     inkscape:pageopacity="0"
     inkscape:pageshadow="2"
     inkscape:window-width="1600"
     inkscape:window-height="847"
     id="namedview124"
     showgrid="false"
     inkscape:zoom="0.77257963"
     inkscape:cx="88.635227"
     inkscape:cy="-129.55473"
     inkscape:window-x="0"
     inkscape:window-y="31"
     inkscape:window-maximized="1"
     inkscape:current-layer="svg2" />
  <title
     id="title4">glps_renderer figure</title>
  <desc
     id="desc6">
Creator: GL2PS 1.3.8, (C) 1999-2012 C. Geuzaine
For: Octave
CreationDate: Sun Jul 10 11:25:47 2016
</desc>
  <defs
     id="defs8">
    <marker
       inkscape:stockid="Arrow1Send"
       orient="auto"
       refY="0.0"
       refX="0.0"
       id="Arrow1Send"
       style="overflow:visible;">
      <path
         id="path3999"
         d="M 0.0,0.0 L 5.0,-5.0 L -12.5,0.0 L 5.0,5.0 L 0.0,0.0 z "
         style="fill-rule:evenodd;stroke:#000000;stroke-width:1.0pt;"
         transform="scale(0.2) rotate(180) translate(6,0)" />
    </marker>
    <marker
       inkscape:stockid="Arrow1Lend"
       orient="auto"
       refY="0.0"
       refX="0.0"
       id="Arrow1Lend"
       style="overflow:visible;">
      <path
         id="path3987"
         d="M 0.0,0.0 L 5.0,-5.0 L -12.5,0.0 L 5.0,5.0 L 0.0,0.0 z "
         style="fill-rule:evenodd;stroke:#000000;stroke-width:1.0pt;"
         transform="scale(0.8) rotate(180) translate(12.5,0)" />
    </marker>
  </defs>
  <polygon
     style="fill:#ffffff;stroke-width:2.5;stroke-miterlimit:4;stroke-dasharray:none"
     id="polygon12"
     points="521.28,384.48 521.28,384.48 521.28,32.4 " />
  <polygon
     style="fill:#ffffff;stroke-width:2.5;stroke-miterlimit:4;stroke-dasharray:none"
     id="polygon14"
     points="521.28,384.48 521.28,32.4 521.28,32.4 " />
  <polygon
     style="fill:#ffffff;stroke-width:2.5;stroke-miterlimit:4;stroke-dasharray:none"
     id="polygon16"
     points="74.88,32.4 74.88,32.4 521.28,32.4 " />
  <polygon
     style="fill:#ffffff;stroke-width:2.5;stroke-miterlimit:4;stroke-dasharray:none"
     id="polygon18"
     points="74.88,32.4 521.28,32.4 521.28,32.4 " />
  <polygon
     style="fill:#ffffff;stroke-width:2.5;stroke-miterlimit:4;stroke-dasharray:none"
     id="polygon22"
     points="74.88,32.4 521.28,384.48 521.28,32.4 " />
  <polyline
     style="fill:none;stroke:#000000;stroke-width:2.5;stroke-dasharray:none;stroke-miterlimit:4"
     id="polyline26"
     points="74.88,32.4 521.28,32.4" />
  <polyline
     style="fill:none;stroke:#000000;stroke-width:2.5;stroke-dasharray:none;stroke-miterlimit:4"
     id="polyline28"
     points="74.88,32.4 521.28,32.4" />
  <polyline
     style="fill:none;stroke:#000000;stroke-width:2.5;stroke-dasharray:none;stroke-miterlimit:4"
     id="polyline34"
     points="521.28,384.48 521.28,32.4" />
  <polyline
     style="fill:none;stroke:#000000;stroke-width:2.5;stroke-dasharray:none;stroke-miterlimit:4"
     id="polyline36"
     points="521.28,384.48 521.28,32.4" />
  <polyline
     style="fill:none;stroke:#000000;stroke-width:2.5;stroke-dasharray:none;stroke-miterlimit:4"
     id="polyline40"
     points="521.28,32.4 521.28,32.4" />
  <polyline
     style="fill:none;stroke:#000000;stroke-width:2.5;stroke-dasharray:none;stroke-miterlimit:4"
     id="polyline50"
     points="164.16,32.4 164.16,36.865" />
  <polyline
     style="fill:none;stroke:#000000;stroke-width:2.5;stroke-dasharray:none;stroke-miterlimit:4"
     id="polyline54"
     points="253.44,32.4 253.44,36.865" />
  <polyline
     style="fill:none;stroke:#000000;stroke-width:2.5;stroke-dasharray:none;stroke-miterlimit:4"
     id="polyline58"
     points="342.72,32.4 342.72,36.865" />
  <polyline
     style="fill:none;stroke:#000000;stroke-width:2.5;stroke-dasharray:none;stroke-miterlimit:4"
     id="polyline62"
     points="432,32.4 432,36.865" />
  <polyline
     style="fill:none;stroke:#000000;stroke-width:2.5;stroke-dasharray:none;stroke-miterlimit:4"
     id="polyline66"
     points="521.28,32.4 521.28,36.865" />
  <polyline
     style="fill:none;stroke:#000000;stroke-width:2.5;stroke-dasharray:none;stroke-miterlimit:4"
     id="polyline86"
     points="521.28,325.8 516.812,325.8" />
  <polyline
     style="fill:none;stroke:#000000;stroke-width:2.5;stroke-dasharray:none;stroke-miterlimit:4"
     id="polyline90"
     points="521.28,267.12 516.812,267.12" />
  <polyline
     style="fill:none;stroke:#000000;stroke-width:2.5;stroke-dasharray:none;stroke-miterlimit:4"
     id="polyline94"
     points="521.28,208.44 516.812,208.44" />
  <polyline
     style="fill:none;stroke:#000000;stroke-width:2.5;stroke-dasharray:none;stroke-miterlimit:4"
     id="polyline98"
     points="521.28,149.76 516.812,149.76" />
  <polyline
     style="fill:none;stroke:#000000;stroke-width:2.5;stroke-dasharray:none;stroke-miterlimit:4"
     id="polyline102"
     points="521.28,91.08 516.812,91.08" />
  <polyline
     style="fill:none;stroke:#000000;stroke-width:2.5;stroke-dasharray:none;stroke-miterlimit:4"
     id="polyline106"
     points="521.28,32.4 516.812,32.4" />
  <g
     id="g3946"
     transform="translate(-23.644001,380.99189)">
    <polyline
       points="74.88,384.48 74.88,32.4"
       id="polyline32"
       style="fill:none;stroke:#000000;stroke-width:2.5;stroke-miterlimit:4;stroke-dasharray:none" />
    <polyline
       points="74.88,384.48 74.88,32.4 74.88,32.4"
       id="polyline38"
       style="fill:none;stroke:#000000;stroke-width:2.5;stroke-miterlimit:4;stroke-dasharray:none" />
    <polyline
       points="74.88,32.4 74.88,36.865"
       id="polyline46"
       style="fill:none;stroke:#000000;stroke-width:2.5;stroke-miterlimit:4;stroke-dasharray:none" />
    <polyline
       points="74.88,325.8 79.348,325.8"
       id="polyline84"
       style="fill:none;stroke:#000000;stroke-width:2.5;stroke-miterlimit:4;stroke-dasharray:none" />
    <polyline
       points="74.88,267.12 79.348,267.12"
       id="polyline88"
       style="fill:none;stroke:#000000;stroke-width:2.5;stroke-miterlimit:4;stroke-dasharray:none" />
    <polyline
       points="74.88,208.44 79.348,208.44"
       id="polyline92"
       style="fill:none;stroke:#000000;stroke-width:2.5;stroke-miterlimit:4;stroke-dasharray:none" />
    <polyline
       points="74.88,149.76 79.348,149.76"
       id="polyline96"
       style="fill:none;stroke:#000000;stroke-width:2.5;stroke-miterlimit:4;stroke-dasharray:none" />
    <polyline
       points="74.88,91.08 79.348,91.08"
       id="polyline100"
       style="fill:none;stroke:#000000;stroke-width:2.5;stroke-miterlimit:4;stroke-dasharray:none" />
    <polyline
       points="74.88,32.4 79.348,32.4"
       id="polyline104"
       style="fill:none;stroke:#000000;stroke-width:2.5;stroke-miterlimit:4;stroke-dasharray:none" />
    <text
       x="69.875504"
       y="325.79999"
       font-size="10"
       baseline-shift="-5"
       id="text110"
       style="font-size:10px;text-anchor:end;baseline-shift:-5px;fill:#000000;stroke-width:2.5;stroke-miterlimit:4;stroke-dasharray:none;font-family:Helvetica">0</text>
    <text
       x="69.875504"
       y="267.12"
       font-size="10"
       baseline-shift="-5"
       id="text112"
       style="font-size:10px;text-anchor:end;baseline-shift:-5px;fill:#000000;stroke-width:2.5;stroke-miterlimit:4;stroke-dasharray:none;font-family:Helvetica">0.2</text>
    <text
       x="69.875504"
       y="208.44"
       font-size="10"
       baseline-shift="-5"
       id="text114"
       style="font-size:10px;text-anchor:end;baseline-shift:-5px;fill:#000000;stroke-width:2.5;stroke-miterlimit:4;stroke-dasharray:none;font-family:Helvetica">0.4</text>
    <text
       x="69.875504"
       y="149.75999"
       font-size="10"
       baseline-shift="-5"
       id="text116"
       style="font-size:10px;text-anchor:end;baseline-shift:-5px;fill:#000000;stroke-width:2.5;stroke-miterlimit:4;stroke-dasharray:none;font-family:Helvetica">0.6</text>
    <text
       x="69.875504"
       y="91.080002"
       font-size="10"
       baseline-shift="-5"
       id="text118"
       style="font-size:10px;text-anchor:end;baseline-shift:-5px;fill:#000000;stroke-width:2.5;stroke-miterlimit:4;stroke-dasharray:none;font-family:Helvetica">0.8</text>
    <text
       x="69.875504"
       y="32.400002"
       font-size="10"
       baseline-shift="-5"
       id="text120"
       style="font-size:10px;text-anchor:end;baseline-shift:-5px;fill:#000000;stroke-width:2.5;stroke-miterlimit:4;stroke-dasharray:none;font-family:Helvetica">1</text>
  </g>
  <polyline
     style="fill:none;stroke:#000000;stroke-width:2.5;stroke-miterlimit:4;stroke-dasharray:none"
     id="polyline42"
     points="521.28,384.48 521.28,384.48"
     transform="translate(-23.79661,321.8459)" />
  <polyline
     style="fill:none;stroke:#000000;stroke-width:2.5;stroke-miterlimit:4;stroke-dasharray:none"
     id="polyline48"
     points="164.16,384.48 164.16,380.015"
     transform="translate(-23.79661,321.8459)" />
  <polyline
     style="fill:none;stroke:#000000;stroke-width:2.5;stroke-miterlimit:4;stroke-dasharray:none"
     id="polyline52"
     points="253.44,384.48 253.44,380.015"
     transform="translate(-23.79661,321.8459)" />
  <polyline
     style="fill:none;stroke:#000000;stroke-width:2.5;stroke-miterlimit:4;stroke-dasharray:none"
     id="polyline56"
     points="342.72,384.48 342.72,380.015"
     transform="translate(-23.79661,321.8459)" />
  <polyline
     style="fill:none;stroke:#000000;stroke-width:2.5;stroke-miterlimit:4;stroke-dasharray:none"
     id="polyline60"
     points="432,384.48 432,380.015"
     transform="translate(-23.79661,321.8459)" />
  <polyline
     style="fill:none;stroke:#000000;stroke-width:2.5;stroke-miterlimit:4;stroke-dasharray:none"
     id="polyline64"
     points="521.28,384.48 521.28,380.015"
     transform="translate(-23.79661,321.8459)" />
  <text
     style="font-size:10px;text-anchor:middle;baseline-shift:-10px;fill:#000000;stroke-width:2.5;stroke-miterlimit:4;stroke-dasharray:none;font-family:Helvetica"
     id="text70"
     baseline-shift="-10"
     font-size="10"
     y="711.3269"
     x="140.36339">0.02</text>
  <text
     style="font-size:10px;text-anchor:middle;baseline-shift:-10px;fill:#000000;stroke-width:2.5;stroke-miterlimit:4;stroke-dasharray:none;font-family:Helvetica"
     id="text72"
     baseline-shift="-10"
     font-size="10"
     y="711.3269"
     x="229.64339">0.04</text>
  <text
     style="font-size:10px;text-anchor:middle;baseline-shift:-10px;fill:#000000;stroke-width:2.5;stroke-miterlimit:4;stroke-dasharray:none;font-family:Helvetica"
     id="text74"
     baseline-shift="-10"
     font-size="10"
     y="711.3269"
     x="318.9234">0.06</text>
  <text
     style="font-size:10px;text-anchor:middle;baseline-shift:-10px;fill:#000000;stroke-width:2.5;stroke-miterlimit:4;stroke-dasharray:none;font-family:Helvetica"
     id="text76"
     baseline-shift="-10"
     font-size="10"
     y="711.3269"
     x="408.2034">0.08</text>
  <text
     style="font-size:10px;text-anchor:middle;baseline-shift:-10px;fill:#000000;stroke-width:2.5;stroke-miterlimit:4;stroke-dasharray:none;font-family:Helvetica"
     id="text78"
     baseline-shift="-10"
     font-size="10"
     y="711.3269"
     x="497.48343">0.1</text>
  <polyline
     style="fill:none;stroke:#000000;stroke-width:2.5;stroke-miterlimit:4;stroke-dasharray:none"
     id="polyline80"
     points="74.88,384.48 79.348,384.48"
     transform="translate(-23.79661,321.8459)" />
  <polyline
     style="fill:none;stroke:#000000;stroke-width:2.5;stroke-miterlimit:4;stroke-dasharray:none"
     id="polyline82"
     points="521.28,384.48 516.812,384.48"
     transform="translate(-23.79661,321.8459)" />
  <g
     id="g4614"
     transform="translate(-653.6543,-63.423883)">
    <polyline
       transform="matrix(1.0230673,0,0,1.2941083,8.158432,56.679255)"
       points="74.88,384.48 521.28,384.48"
       id="polyline24"
       style="fill:none;stroke:#000000;stroke-width:2.5;stroke-miterlimit:4;stroke-dasharray:none;marker-end:url(#Arrow1Send)" />
    <polyline
       transform="translate(9.8568788,228.0107)"
       points="74.88,325.935 79.344,325.99 83.808,326.066 88.272,326.17 92.736,326.308 97.2,326.492 101.664,326.734 106.128,327.049 110.592,327.454 115.056,327.969 119.52,328.617 123.984,329.423 128.448,330.412 132.912,331.61 137.376,333.044 141.84,334.734 146.304,336.699 150.768,338.945 155.232,341.469 159.696,344.25 164.16,347.251 168.624,350.407 173.088,353.628 177.552,356.793 182.016,359.749 186.48,362.312 190.944,364.263 195.408,365.361 199.872,365.34 204.336,363.922 208.8,360.829 213.264,355.797 217.728,348.588 222.192,339.012 226.656,326.937 231.12,312.314 235.584,295.184 240.048,275.692 244.512,254.093 248.976,230.754 253.44,206.149 257.904,180.844 262.368,155.487 266.832,130.778 271.296,107.445 275.76,86.2103 280.224,67.7579 284.688,52.7025 289.152,41.5574 293.616,34.7098 298.08,32.4 302.544,34.7098 307.008,41.5574 311.472,52.7025 315.936,67.7579 320.4,86.2103 324.864,107.445 329.328,130.778 333.792,155.487 338.256,180.844 342.72,206.149 347.184,230.754 351.648,254.093 356.112,275.692 360.576,295.184 365.04,312.314 369.504,326.937 373.968,339.012 378.432,348.588 382.896,355.797 387.36,360.829 391.824,363.922 396.288,365.34 400.752,365.361 405.216,364.263 409.68,362.312 414.144,359.749 418.608,356.793 423.072,353.628 427.536,350.407 432,347.251 436.464,344.25 440.928,341.469 445.392,338.945 449.856,336.699 454.32,334.734 458.784,333.044 463.248,331.61 467.712,330.412 472.176,329.423 476.64,328.617 481.104,327.969 485.568,327.454 490.032,327.049 494.496,326.734 498.96,326.492 503.424,326.308 507.888,326.17 512.352,326.066 516.816,325.99"
       id="polyline122"
       style="fill:none;stroke:#0000ff;stroke-width:2.5;stroke-miterlimit:4;stroke-dasharray:none" />
    <text
       sodipodi:linespacing="125%"
       id="text4610"
       y="590.55969"
       x="528.10089"
       style="font-size:40px;font-style:normal;font-weight:normal;line-height:125%;letter-spacing:0px;word-spacing:0px;fill:#000000;fill-opacity:1;stroke:none;font-family:helvetica;-inkscape-font-specification:helvetica"
       xml:space="preserve"><tspan
         y="590.55969"
         x="528.10089"
         id="tspan4612"
         sodipodi:role="line">t</tspan></text>
  </g>
</svg>
